{"title":"Stand Off 2011 BRRip 720p x264 AAC - PRiSTiNE","uid":8313850,"size":601217302,"categoryP":"video","categoryS":"hd___movies","magnet":"?xt=urn:btih:47382ae353f242709d16b65101719ae16f600802&amp;dn=Stand+Off+2011+BRRip+720p+x264+AAC+-+PRiSTiNE&amp;tr=udp%3A%2F%2Ftracker.openbittorrent.com%3A80&amp;tr=udp%3A%2F%2Fopen.demonii.com%3A1337&amp;tr=udp%3A%2F%2Ftracker.coppersurfer.tk%3A6969&amp;tr=udp%3A%2F%2Fexodus.desync.com%3A6969","seeders":1,"leechers":0,"uploader":"ValidusVyto","files":-1,"time":1364537724,"description":"_________________________  Visit us at _________________________\n  &lt;a href=&quot;\nhttp://p2pdl.com&quot; rel=&quot;nofollow&quot; target=&quot;_NEW&quot;&gt;\nhttp://p2pdl.com&lt;/a&gt;  ____________________________ &lt;a href=&quot; http://p2pdl.com&quot; rel=&quot;nofollow&quot; target=&quot;_NEW&quot;&gt; http://p2pdl.com&lt;/a&gt;\n\n\nStand Off 2011 BRRip 720p x264 AAC - PRiSTiNE\n\n\nOriginal Title: Whole Lotta Sole\nGenre: Comedy | Drama\nPlot: The story centers on a botched fish market robbery that leads to the involvement of the local\npolice and a gangster out for revenge. \nDirector: Terry George\nStars: Brendan Fraser, Colm Meaney, Martin McCann.\nRated: R for language.\n\n\nInfo: &lt;a href=&quot;\nhttp://www.imdb.com/title/tt1545328/&quot; rel=&quot;nofollow&quot; target=&quot;_NEW&quot;&gt;\nhttp://www.imdb.com/title/tt1545328/&lt;/a&gt;\n\nTrailer:\n\n\nFormat                         : MPEG-4\nFile size                      : 566 MiB\nDuration                       : 1h 29mn\nVideo Format                   : AVC\nVideo Bit rate                 : 800 Kbps\nWidth                          : 1 280 pixels\nHeight                         : 688 pixels\nDisplay aspect ratio           : 1.85:1\nFrame rate mode                : Constant\nFrame rate                     : 23.976 fps\nStream size                    : 511 MiB (90%)\nWriting library                : x264 core 130 r2273\nAudio Format                   : AAC\nAudio Bit rate                 : 83.8 Kbps\nChannel(s)                     : 2 channels\nChannel positions              : Front: L R\nSampling rate                  : 48.0 KHz\nStream size                    : 53.5 MiB (9%)\nLanguage                       : English\nSubtitle                       : Yes(English)\nSource                         : LIMITED.720p.BluRay.x264-IGUANA(Thanks)\n\nScreenshots:\n &lt;a href=&quot;\nhttp://ultraimg.com/images/GRV.jpg&quot; rel=&quot;nofollow&quot; target=&quot;_NEW&quot;&gt;\nhttp://ultraimg.com/images/GRV.jpg&lt;/a&gt; &lt;a href=&quot;\nhttp://ultraimg.com/images/weY3y.jpg&quot; rel=&quot;nofollow&quot; target=&quot;_NEW&quot;&gt;\nhttp://ultraimg.com/images/weY3y.jpg&lt;/a&gt; &lt;a href=&quot;\nhttp://ultraimg.com/images/SBoi2.jpg&quot; rel=&quot;nofollow&quot; target=&quot;_NEW&quot;&gt;\nhttp://ultraimg.com/images/SBoi2.jpg&lt;/a&gt; &lt;a href=&quot;\nhttp://ultraimg.com/images/EGT5Z.jpg&quot; rel=&quot;nofollow&quot; target=&quot;_NEW&quot;&gt;\nhttp://ultraimg.com/images/EGT5Z.jpg&lt;/a&gt; &lt;a href=&quot;\nhttp://ultraimg.com/images/sPXpU.jpg&quot; rel=&quot;nofollow&quot; target=&quot;_NEW&quot;&gt;\nhttp://ultraimg.com/images/sPXpU.jpg&lt;/a&gt; &lt;a href=&quot;\nhttp://ultraimg.com/images/bToks.jpg&quot; rel=&quot;nofollow&quot; target=&quot;_NEW&quot;&gt;\nhttp://ultraimg.com/images/bToks.jpg&lt;/a&gt;\n\n\n----------------------------------------------------------------------------------------------------\n\n\nEncoded using revolutionary 10bit encoding, which enables us to provide you more crispier \nand sharper images at small sizes, just make sure you follow our instructions without a fault.\nRecommend to you to use latest version of VLC player. Install K-Lite Codec Pack or shark007 codecs\nin case of any kind of problem in playback (For non-VLC Media Player users). Alternatively, install\nCore AVC codecs, the fastest decoder that there is coupled with Community Center Codec Pack and play\non Windows Media Player Classic. Check sample to be sure.\nEnjoy!\n\nEncoder Notes: Encoder Notes: Looking For Early Access To Anything You Can Provide DVDScr, R5, DVDR, BluRay, Direct\nAudio, Music Releases and Seedboxes. We require dedicated servers, so as to do more and fast releases of movies.\nIf You Got anything to offer contact us at &quot;&lt;a class=&quot;__cf_email__&quot; href=&quot;/cdn-cgi/l/email-protection&quot; data-cfemail=&quot;dfafadb89fb7aaacb7f1bcb0b2&quot;&gt;[email&amp;#160;protected]&lt;/a&gt;&lt;script cf-hash='f9e31' type=&quot;text/javascript&quot;&gt;\n/* &lt;![CDATA[ */!function(){try{var t=&quot;currentScript&quot;in document?document.currentScript:function(){for(var t=document.getElementsByTagName(&quot;script&quot;),e=t.length;e--;)if(t[e].getAttribute(&quot;cf-hash&quot;))return t[e]}();if(t&amp;&amp;t.previousSibling){var e,r,n,i,c=t.previousSibling,a=c.getAttribute(&quot;data-cfemail&quot;);if(a){for(e=&quot;&quot;,r=parseInt(a.substr(0,2),16),n=2;a.length-n;n+=2)i=parseInt(a.substr(n,2),16)^r,e+=String.fromCharCode(i);e=document.createTextNode(e),c.parentNode.replaceChild(e,c)}}}catch(u){}}();/* ]]&gt; */&lt;/script&gt;&quot;.\n\nFan Page: \nwww.fb.me/p2pdl","torrent":{"xt":"urn:btih:47382ae353f242709d16b65101719ae16f600802","amp;dn":"Stand+Off+2011+BRRip+720p+x264+AAC+-+PRiSTiNE","amp;tr":["udp%3A%2F%2Ftracker.openbittorrent.com%3A80","udp%3A%2F%2Fopen.demonii.com%3A1337","udp%3A%2F%2Ftracker.coppersurfer.tk%3A6969","udp%3A%2F%2Fexodus.desync.com%3A6969"],"infoHash":"47382ae353f242709d16b65101719ae16f600802","infoHashBuffer":{"type":"Buffer","data":[71,56,42,227,83,242,66,112,157,22,182,81,1,113,154,225,111,96,8,2]},"announce":[],"urlList":[]}}